Coordinates
version=1
nRows=26
nColumns=24
inDegrees=yes

Units are S.I. units (second, meters, Newtons, ...)
Angles are in degrees.

endheader
time	pelvis_tilt	pelvis_list	pelvis_rotation	pelvis_tx	pelvis_ty	pelvis_tz	hip_flexion_r	hip_adduction_r	hip_rotation_r	knee_angle_r	ankle_angle_r	subtalar_angle_r	mtp_angle_r	hip_flexion_l	hip_adduction_l	hip_rotation_l	knee_angle_l	ankle_angle_l	subtalar_angle_l	mtp_angle_l	lumbar_extension	lumbar_bending	lumbar_rotation
      3.17000000	      4.82647276	     -2.57017973	      6.88314084	      0.94155598	      1.04753865	      1.56002093	      8.82676472	      4.84171818	     -8.27601499	    -13.55867247	      4.53366664	      7.57975244	    -43.52233512	      3.76283030	     -4.36871753	      9.15917319	    -53.83068220	     -8.70668903	     16.71965801	    -32.95507296	    -16.59748726	      4.04729832	     -4.46667479
      3.18000000	      4.81911683	     -2.06521571	      6.30571176	      0.94079268	      1.05143677	      1.56087859	      6.95902702	      4.51750125	     -8.19245951	    -12.14746741	      4.83348195	      8.58236898	    -43.56793611	      5.63634297	     -3.65590535	      8.69104512	    -53.75406277	     -7.92150784	     15.62148213	    -32.72436309	    -16.78231773	      3.27098862	     -3.68008178
      3.19000000	      4.72342961	     -1.55943193	      5.63537727	      0.93992227	      1.05500078	      1.56178224	      5.21837898	      4.15239773	     -8.08455891	    -10.75340057	      5.04585796	      9.57884561	    -43.70616224	      7.44525064	     -2.97543303	      8.11472217	    -53.12338866	     -7.06947650	     14.54881123	    -32.50190388	    -16.86606702	      2.46483308	     -2.82320276
      3.20000000	      4.57656419	     -1.06190799	      4.91404171	      0.93898039	      1.05818689	      1.56268603	      3.57010996	      3.75394287	     -7.99449362	     -9.39338737	      5.23888849	     10.59163350	    -43.91440013	      9.14173965	     -2.32942296	      7.50890906	    -51.95376858	     -6.30854657	     13.34702455	    -32.32895296	    -16.88026728	      1.65832591	     -1.93211084
      3.21000000	      4.38522576	     -0.59271134	      4.15534308	      0.93800849	      1.06092642	      1.56359583	      2.01838693	      3.34422779	     -7.96208763	     -8.08913036	      5.42595900	     11.65814458	    -44.19473350	     10.70601689	     -1.73989896	      6.92231100	    -50.26234941	     -5.69854763	     12.03897724	    -32.22714638	    -16.82546959	      0.87642345	     -1.01821242
      3.22000000	      4.15564599	     -0.15879304	      3.38001094	      0.93701578	      1.06314369	      1.56449589	      0.58953908	      2.92033249	     -8.15818395	     -6.89608419	      5.59928771	     12.90741476	    -44.72250058	     12.14444523	     -1.21757228	      6.37724673	    -48.11283833	     -5.23248937	     10.64657611	    -32.26286609	    -16.70627514	      0.13430512	     -0.10045316
      3.23000000	      3.91710369	      0.18841377	      2.58834951	      0.93603264	      1.06480608	      1.56542615	     -0.79640947	      2.57546820	     -8.23664839	     -5.74382725	      5.85360373	     14.04491767	    -45.21422100	     13.42890144	     -0.81826195	      5.91588909	    -45.54925146	     -4.94711788	      9.13477771	    -32.49790253	    -16.54979785	     -0.50881255	      0.84743179
      3.24000000	      3.69003111	      0.42343544	      1.79192564	      0.93506883	      1.06588935	      1.56640884	     -2.15867301	      2.34052119	     -8.15491687	     -4.64805007	      6.21239605	     15.07391346	    -45.49694071	     14.54394539	     -0.57143050	      5.58236242	    -42.61406132	     -4.88853951	      7.57595552	    -32.75389539	    -16.38173658	     -1.02366306	      1.82761567
      3.25000000	      3.46772370	      0.61583086	      1.02137563	      0.93417469	      1.06637306	      1.56733663	     -3.35984537	      2.07381263	     -8.78488029	     -3.84242736	      6.70908312	     16.86933700	    -46.60204187	     15.50832068	     -0.40245628	      5.35107348	    -39.37397103	     -4.80497611	      6.07979228	    -34.60440269	    -16.19313197	     -1.47478697	      2.78074299
      3.26000000	      3.23579044	      0.65896079	      0.26125238	      0.93328597	      1.06623222	      1.56835348	     -4.62036193	      2.01462380	     -8.65534338	     -2.89380022	      7.09211027	     17.63036008	    -47.66902328	     16.36635075	     -0.41168192	      5.30269482	    -35.90534532	     -4.55057465	      4.30462683	    -40.83529563	    -15.97838191	     -1.75838776	      3.75248780
      3.27000000	      3.03290270	      0.59881255	     -0.46994634	      0.93250130	      1.06548127	      1.56935116	     -5.79107567	      2.01904573	     -8.86039705	     -2.19119833	      7.52931365	     18.99944245	    -47.61208717	     17.05419668	     -0.56076370	      5.41195886	    -32.20580099	     -4.79370502	      2.67784492	    -41.44016136	    -15.77453347	     -1.91212318	      4.71930871
      3.28000000	      2.92208251	      0.45333778	     -1.16392512	      0.93182318	      1.06424271	      1.57036271	     -7.05052738	      2.11746678	     -8.78401806	     -1.53618355	      8.02801863	     19.91050859	    -47.62452119	     17.51825203	     -0.82958582	      5.69771227	    -28.33101828	     -5.10427690	      1.13246182	    -41.93093570	    -15.65897941	     -1.96425583	      5.64602584
      3.29000000	      2.80906949	      0.20676047	     -1.83118057	      0.93125538	      1.06244292	      1.57136172	     -8.19496942	      2.28233608	     -8.99958108	     -1.10305494	      8.55718845	     21.31951190	    -47.62015988	     17.94803381	     -1.26809524	      5.97975289	    -24.47401306	     -4.91444458	     -0.22281584	    -48.92929225	    -15.52845078	     -1.89305797	      6.55831870
      3.30000000	      2.78510196	     -0.14608430	     -2.45813043	      0.93083349	      1.06020672	      1.57236034	     -9.43205400	      2.56069917	     -8.85644365	     -0.72686913	      9.17338412	     22.19795337	    -47.62694908	     18.21693984	     -1.85302781	      6.32704675	    -20.64352793	     -5.09497407	     -1.26113036	    -49.21955660	    -15.48533742	     -1.69894063	      7.43708075
      3.31000000	      2.79247825	     -0.57601632	     -3.00913344	      0.93056207	      1.05753939	      1.57328598	    -10.63711812	      2.89584399	     -8.89749791	     -0.50696560	      9.82548023	     23.36218786	    -47.62700500	     18.47693009	     -2.54856270	      6.60014962	    -17.03181683	     -5.08296252	     -1.92882270	    -50.14490447	    -15.46763761	     -1.40497578	      8.22023224
      3.32000000	      2.82860016	     -1.04307808	     -3.54788690	      0.93043395	      1.05452898	      1.57422526	    -11.77724012	      3.24192107	     -8.92402982	     -0.51212417	     10.55311691	     24.47251910	    -47.42671250	     18.80032144	     -3.35693285	      6.32665408	    -13.82984238	     -4.47259851	     -1.74740908	    -55.39117698	    -15.47191201	     -1.07525988	      8.98248944
      3.33000000	      2.94926530	     -1.57609958	     -4.01181721	      0.93046836	      1.05130409	      1.57512190	    -13.05676039	      3.66731317	     -8.51488403	     -0.48308363	     11.30686137	     24.89591339	    -47.37339687	     19.11936758	     -4.23260201	      5.58425540	    -11.09270659	     -3.86771620	     -0.65107625	    -55.68005940	    -15.56502949	     -0.66942706	      9.64931822
      3.34000000	      3.10369427	     -2.07674268	     -4.41946371	      0.93067680	      1.04792187	      1.57591464	    -14.30261729	      4.03111604	     -8.17691287	     -0.62238696	     12.12758871	     25.34496893	    -47.31736236	     19.45294369	     -5.03871297	      4.35277064	     -8.78663136	     -3.11726357	      1.12029928	    -56.13133779	    -15.67895578	     -0.29205235	     10.21262190
      3.35000000	      3.30445733	     -2.53068055	     -4.76478787	      0.93105499	      1.04448397	      1.57658093	    -15.55643090	      4.32788413	     -7.81879567	     -0.86994842	     12.98082507	     25.64449906	    -47.26819332	     19.75773436	     -5.73002784	      2.70765853	     -6.90127269	     -2.32029000	      3.43181351	    -56.62820480	    -15.82747360	      0.04423688	     10.66917056
      3.36000000	      3.54462569	     -2.91056238	     -5.05625929	      0.93158664	      1.04106118	      1.57712276	    -16.79688656	      4.52987131	     -7.42533760	     -1.24250192	     13.84457152	     25.73924283	    -47.24232812	     20.00709965	     -6.26177786	      0.81781204	     -5.41844824	     -1.59107000	      5.99257021	    -57.07438811	    -15.99922103	      0.30512456	     11.02673839
      3.37000000	      3.76203618	     -3.21585615	     -5.27762857	      0.93224746	      1.03762842	      1.57751523	    -17.99739496	      4.65370376	     -6.92040134	     -1.65343016	     14.74197441	     25.65763295	    -47.26524206	     20.25906616	     -6.62615211	     -1.04911672	     -4.34607606	     -1.01924704	      8.50356456	    -57.44216841	    -16.12405243	      0.50258967	     11.26668380
      3.38000000	      3.97976490	     -3.42059949	     -5.44761195	      0.93303048	      1.03428391	      1.57775931	    -19.14486942	      4.66692068	     -6.36530111	     -2.16173168	     15.60221146	     25.34720567	    -47.35000632	     20.43790037	     -6.79816690	     -2.60779481	     -3.61868981	     -0.68453609	     10.48848149	    -57.67743629	    -16.22671848	      0.60511859	     11.41710994
      3.39000000	      4.15711154	     -3.53281754	     -5.56693698	      0.93393037	      1.03103106	      1.57786052	    -20.22042373	      4.59046604	     -5.71254210	     -2.71430195	     16.44289960	     24.82334343	    -47.53519719	     20.57896301	     -6.80221121	     -3.67462912	     -3.22868554	     -0.60642925	     11.78995972	    -57.78364646	    -16.26015334	      0.62801004	     11.49038852
      3.40000000	      4.30794141	     -3.53806280	     -5.64339901	      0.93492631	      1.02794542	      1.57783667	    -21.20569010	      4.41188524	     -4.93587639	     -3.36284330	     17.19634939	     23.99209654	    -47.88947054	     20.65257452	     -6.63162385	     -4.10244618	     -3.14325549	     -0.79754130	     12.13307527	    -57.73374189	    -16.24335506	      0.54918042	     11.48282655
      3.41000000	      4.41896205	     -3.43919019	     -5.70576484	      0.93604925	      1.02506938	      1.57768233	    -22.07519761	      4.11573182	     -4.18334690	     -4.11672217	     17.84135260	     23.22958509	    -48.29628420	     20.65200987	     -6.30062794	     -3.79188258	     -3.31175157	     -1.26414479	     11.40343380	    -57.56244328	    -16.15751126	      0.37524751	     11.45108484
      3.42000000	      4.50328314	     -3.25565759	     -5.75326044	      0.93729824	      1.02247385	      1.57743497	    -22.82901812	      3.73563978	     -3.35531097	     -5.00275048	     18.34308244	     22.28259801	    -48.78987489	     20.60450612	     -5.85296804	     -3.00468148	     -3.77178108	     -1.94496602	     10.06221333	    -57.30375380	    -16.02307319	      0.11977199	     11.40497456
